<?xml version="1.0" encoding="utf-8"?>
<svg xmlns="http://www.w3.org/2000/svg">
	<symbol id="arrow" viewBox="0 0 26 14">
		<path d="M25.7021 6.28108L25.7012 6.28012L20.3944 0.998872C19.9968 0.603235 19.3537 0.604707 18.958 1.00232C18.5623 1.39989 18.5638 2.04293 18.9614 2.43862L22.5244 5.98437H1.01562C0.454695 5.98437 0 6.43906 0 6.99999C0 7.56092 0.454695 8.01562 1.01562 8.01562H22.5244L18.9615 11.5614C18.5639 11.9571 18.5624 12.6001 18.9581 12.9977C19.3538 13.3953 19.9969 13.3967 20.3944 13.0011L25.7013 7.71987L25.7022 7.7189C26.0999 7.3219 26.0987 6.67677 25.7021 6.28108Z" />
	</symbol>
	<symbol id="arrow_swiper" viewBox="0 0 14 24">
		<path d="M0.775024 12.5903L11.7975 23.6128C12.1624 23.9652 12.7439 23.9551 13.0963 23.5902C13.4401 23.2342 13.4401 22.6699 13.0963 22.314L2.72322 11.9409L13.0963 1.56786C13.4549 1.2092 13.4549 0.627724 13.0963 0.269064C12.7376 -0.0895424 12.1561 -0.0895424 11.7975 0.269064L0.775024 11.2915C0.416417 11.6502 0.416417 12.2317 0.775024 12.5903Z" />
	</symbol>
	<symbol id="telegram" viewBox="0 0 40 40">
		<path d="M20 40C31.0457 40 40 31.0457 40 20C40 8.9543 31.0457 0 20 0C8.9543 0 0 8.9543 0 20C0 31.0457 8.9543 40 20 40Z" fill="#039BE5" />
		<path d="M9.15113 19.5668L28.4345 12.1318C29.3295 11.8084 30.1111 12.3501 29.8211 13.7034L29.8228 13.7018L26.5395 29.1701C26.2961 30.2668 25.6445 30.5334 24.7328 30.0168L19.7328 26.3318L17.3211 28.6551C17.0545 28.9218 16.8295 29.1468 16.3128 29.1468L16.6678 24.0584L25.9345 15.6868C26.3378 15.3318 25.8445 15.1318 25.3128 15.4851L13.8611 22.6951L8.92446 21.1551C7.85279 20.8151 7.82946 20.0834 9.15113 19.5668Z" fill="white" />
	</symbol>
	<symbol id="instagram" viewBox="0 0 58 58">
		<g>
			<defs>
				<lineargradient id="paint0_linear" x1="4.86726" y1="53.1323" x2="53.1327" y2="4.86679" gradientunits="userSpaceOnUse">
					<stop stop-color="#FFD600">
					</stop>
					<stop offset="0.5" stop-color="#FF0100">
					</stop>
					<stop offset="1" stop-color="#D800B9">
					</stop>
				</lineargradient>
				<lineargradient id="paint1_linear" x1="18.4692" y1="39.5299" x2="39.5294" y2="18.4697" gradientunits="userSpaceOnUse">
					<stop stop-color="#FF6400">
					</stop>
					<stop offset="0.5" stop-color="#FF0100">
					</stop>
					<stop offset="1" stop-color="#FD0056">
					</stop>
				</lineargradient>
				<lineargradient id="paint2_linear" x1="42.0195" y1="15.9803" x2="46.9408" y2="11.059" gradientunits="userSpaceOnUse">
					<stop stop-color="#F30072">
					</stop>
					<stop offset="1" stop-color="#E50097">
					</stop>
				</lineargradient>
			</defs>
		</g>
		<path d="M57.8257 17.0435C57.6845 13.9566 57.1942 11.8485 56.4773 10.0042C55.7494 8.06908 54.6078 6.31631 53.1324 4.86755C51.6841 3.39224 49.9309 2.25014 47.9958 1.52177C46.151 0.805359 44.0434 0.315506 40.9565 0.175232C37.8638 0.0336304 36.8757 0 29 0C21.1243 0 20.1362 0.0336304 17.0435 0.174347C13.9566 0.315506 11.849 0.805801 10.0042 1.52266C8.06908 2.25058 6.31631 3.39224 4.86755 4.86755C3.39224 6.31587 2.25014 8.06863 1.52177 10.0037C0.805359 11.8485 0.315506 13.9566 0.175232 17.0431C0.0336304 20.1362 0 21.1239 0 28.9996C0 36.8757 0.0336304 37.8638 0.175232 40.9565C0.315948 44.043 0.806244 46.151 1.5231 47.9958C2.25102 49.9305 3.39268 51.6837 4.868 53.132C6.31631 54.6073 8.06952 55.749 10.0046 56.4769C11.849 57.1942 13.957 57.6841 17.044 57.8252C20.1371 57.9664 21.1247 57.9996 29.0004 57.9996C36.8761 57.9996 37.8643 57.9664 40.9569 57.8252C44.0438 57.6841 46.1515 57.1942 47.9963 56.4769C51.8917 54.9706 54.9711 51.8912 56.4773 47.9958C57.1946 46.151 57.6845 44.043 57.8257 40.9565C57.9664 37.8634 58 36.8757 58 29C58 21.1239 57.9664 20.1362 57.8257 17.0435ZM52.6054 40.7189C52.4767 43.5465 52.0041 45.082 51.6071 46.1037C50.6314 48.6331 48.6326 50.6319 46.1033 51.6076C45.0815 52.0045 43.546 52.4771 40.7184 52.6059C37.6611 52.7457 36.7438 52.7749 29 52.7749C21.2557 52.7749 20.3389 52.7457 17.2811 52.6059C14.454 52.4771 12.9185 52.0045 11.8963 51.6076C10.6369 51.1425 9.49748 50.4013 8.56203 49.438C7.59869 48.5025 6.8575 47.3635 6.39243 46.1037C5.9955 45.082 5.5229 43.5465 5.39413 40.7189C5.25475 37.6611 5.2251 36.7438 5.2251 29.0004C5.2251 21.2566 5.25475 20.3397 5.39413 17.2816C5.52335 14.454 5.9955 12.9185 6.39243 11.8967C6.8575 10.6369 7.59914 9.49748 8.56203 8.56203C9.49748 7.59869 10.6369 6.8575 11.8967 6.39287C12.9185 5.9955 14.454 5.52335 17.2816 5.39413C20.3393 5.25475 21.2566 5.2251 29 5.2251H28.9996C36.743 5.2251 37.6603 5.25475 40.7184 5.39458C43.546 5.52335 45.0811 5.99594 46.1033 6.39287C47.3626 6.85794 48.5021 7.59914 49.4375 8.56203C50.4009 9.49748 51.1421 10.6369 51.6067 11.8967C52.0041 12.9185 52.4767 14.454 52.6054 17.2816C52.7448 20.3393 52.7745 21.2566 52.7745 29C52.7745 36.7438 52.7453 37.6607 52.6054 40.7189Z" fill="url(#paint0_linear)">
		</path>
		<path d="M28.999 14.1079C20.7746 14.1079 14.1074 20.7756 14.1074 29C14.1074 37.2244 20.7746 43.8916 28.999 43.8916C37.2239 43.8916 43.8911 37.2244 43.8911 29C43.8911 20.7756 37.2239 14.1079 28.999 14.1079ZM28.999 38.6665C23.6607 38.666 19.3325 34.3384 19.333 28.9995C19.333 23.6611 23.6607 19.333 28.9995 19.333C34.3383 19.3335 38.666 23.6611 38.666 28.9995C38.666 34.3384 34.3379 38.6665 28.999 38.6665Z" fill="url(#paint1_linear)">
		</path>
		<path d="M47.9602 13.5199C47.9602 15.4417 46.4021 16.9997 44.4803 16.9997C42.5581 16.9997 41 15.4417 41 13.5199C41 11.5976 42.5581 10.0396 44.4803 10.0396C46.4021 10.0396 47.9602 11.5976 47.9602 13.5199Z" fill="url(#paint2_linear)">
		</path>
	</symbol>
	<symbol id="whatsapp" viewBox="0 0 40 40">
		<path d="M20.005 0H19.995C8.9675 0 0 8.97 0 20C0 24.375 1.41 28.43 3.8075 31.7225L1.315 39.1525L9.0025 36.695C12.165 38.79 15.9375 40 20.005 40C31.0325 40 40 31.0275 40 20C40 8.9725 31.0325 0 20.005 0Z" fill="#4CAF50" />
		<path d="M31.6434 28.2425C31.1609 29.605 29.2459 30.735 27.7184 31.065C26.6734 31.2875 25.3084 31.465 20.7134 29.56C14.8359 27.125 11.0509 21.1525 10.7559 20.765C10.4734 20.3775 8.38086 17.6025 8.38086 14.7325C8.38086 11.8625 9.83836 10.465 10.4259 9.86496C10.9084 9.37246 11.7059 9.14746 12.4709 9.14746C12.7184 9.14746 12.9409 9.15996 13.1409 9.16996C13.7284 9.19496 14.0234 9.22996 14.4109 10.1575C14.8934 11.32 16.0684 14.19 16.2084 14.485C16.3509 14.78 16.4934 15.18 16.2934 15.5675C16.1059 15.9675 15.9409 16.145 15.6459 16.485C15.3509 16.825 15.0709 17.085 14.7759 17.45C14.5059 17.7675 14.2009 18.1075 14.5409 18.695C14.8809 19.27 16.0559 21.1875 17.7859 22.7275C20.0184 24.715 21.8284 25.35 22.4759 25.62C22.9584 25.82 23.5334 25.7725 23.8859 25.3975C24.3334 24.915 24.8859 24.115 25.4484 23.3275C25.8484 22.7625 26.3534 22.6925 26.8834 22.8925C27.4234 23.08 30.2809 24.4925 30.8684 24.785C31.4559 25.08 31.8434 25.22 31.9859 25.4675C32.1259 25.715 32.1259 26.8775 31.6434 28.2425Z" fill="#FAFAFA" />
	</symbol>
</svg>
