<svg width="40" height="40" viewBox="0 0 40 40" fill="none" xmlns="http://www.w3.org/2000/svg">
<path d="M20 40C31.0457 40 40 31.0457 40 20C40 8.9543 31.0457 0 20 0C8.9543 0 0 8.9543 0 20C0 31.0457 8.9543 40 20 40Z" fill="#039BE5"/>
<path d="M9.15113 19.5668L28.4345 12.1318C29.3295 11.8084 30.1111 12.3501 29.8211 13.7034L29.8228 13.7018L26.5395 29.1701C26.2961 30.2668 25.6445 30.5334 24.7328 30.0168L19.7328 26.3318L17.3211 28.6551C17.0545 28.9218 16.8295 29.1468 16.3128 29.1468L16.6678 24.0584L25.9345 15.6868C26.3378 15.3318 25.8445 15.1318 25.3128 15.4851L13.8611 22.6951L8.92446 21.1551C7.85279 20.8151 7.82946 20.0834 9.15113 19.5668Z" fill="white"/>
</svg>
